<svg width="30" height="30" viewBox="0 0 30 30" fill="none" xmlns="http://www.w3.org/2000/svg">
<path d="M30 30L24 24H9C8.175 24 7.46875 23.7062 6.88125 23.1187C6.29375 22.5312 6 21.825 6 21V19.5H22.5C23.325 19.5 24.0312 19.2062 24.6187 18.6187C25.2062 18.0312 25.5 17.325 25.5 16.5V6H27C27.825 6 28.5312 6.29375 29.1187 6.88125C29.7062 7.46875 30 8.175 30 9V30ZM3 15.2625L4.7625 13.5H19.5V3H3V15.2625ZM0 22.5V3C0 2.175 0.29375 1.46875 0.88125 0.88125C1.46875 0.29375 2.175 0 3 0H19.5C20.325 0 21.0312 0.29375 21.6187 0.88125C22.2062 1.46875 22.5 2.175 22.5 3V13.5C22.5 14.325 22.2062 15.0312 21.6187 15.6187C21.0312 16.2062 20.325 16.5 19.5 16.5H6L0 22.5ZM3 13.5V3V13.5Z" fill="#818CF8"/>
</svg>
