<svg width="673" height="673" viewBox="0 0 673 673" fill="none" xmlns="http://www.w3.org/2000/svg">
<path d="M667.869 336.501C667.869 519.511 519.509 667.869 336.501 667.869C153.491 667.869 5.13281 519.511 5.13281 336.501C5.13281 153.491 153.491 5.13281 336.501 5.13281C519.509 5.13281 667.869 153.491 667.869 336.501Z" fill="url(#paint0_linear_71_1874)"/>
<path d="M631.958 337.75C629.402 504.472 495.094 637.599 331.97 635.097C168.847 632.596 38.6804 495.419 41.2362 328.698C43.792 161.976 178.1 28.8506 341.224 31.3503C504.347 33.8518 634.513 171.03 631.958 337.75Z" fill="url(#paint1_radial_71_1874)"/>
<path d="M667.869 336.501C667.869 519.511 519.509 667.869 336.501 667.869C153.491 667.869 5.13281 519.511 5.13281 336.501C5.13281 153.491 153.491 5.13281 336.501 5.13281C519.509 5.13281 667.869 153.491 667.869 336.501Z" stroke="#E76900" stroke-width="10.2656" stroke-miterlimit="10"/>
<path d="M126.654 383.767C153.933 399.483 184.316 411.897 202.336 411.897C220.356 411.897 246.461 402.113 277.344 383.993C293.008 374.802 295.138 393.728 287.029 406.118C278.919 418.505 252.942 453.344 202.336 453.344C151.73 453.344 125.753 418.505 117.644 406.118C109.534 393.728 110.918 374.701 126.654 383.767Z" fill="#FDE59C"/>
<path d="M130.762 384.567C158.041 400.283 184.319 403.137 202.34 403.137C220.36 403.137 243.035 402.687 273.917 384.567C289.581 375.376 295.142 384.968 287.032 397.358C278.923 409.745 252.945 444.584 202.34 444.584C151.734 444.584 125.757 409.745 117.647 397.358C109.538 384.968 115.026 375.501 130.762 384.567Z" fill="#974800"/>
<path d="M115.855 394.206C118.413 392.016 123.494 392.244 130.764 396.431C158.041 412.146 184.32 415.001 202.347 415.001C220.356 415.001 243.026 414.546 273.912 396.431C281.183 392.174 286.263 391.946 288.839 394.171C294.077 383.432 288.19 376.179 273.912 384.571C243.026 402.685 220.356 403.141 202.347 403.141C184.32 403.141 158.041 400.285 130.764 384.571C116.398 376.284 110.564 383.467 115.855 394.206Z" fill="#632900"/>
<path d="M547.573 383.767C520.294 399.483 489.911 411.897 471.891 411.897C453.87 411.897 427.765 402.113 396.883 383.993C381.219 374.802 379.088 393.728 387.198 406.117C395.308 418.505 421.285 453.344 471.891 453.344C522.496 453.344 548.473 418.505 556.583 406.117C564.693 393.728 563.309 374.7 547.573 383.767Z" fill="#FDE59C"/>
<path d="M543.465 384.567C516.186 400.283 489.907 403.137 471.887 403.137C453.867 403.137 431.192 402.687 400.309 384.567C384.645 375.376 379.085 384.968 387.194 397.358C395.304 409.745 421.281 444.584 471.887 444.584C522.493 444.584 548.47 409.745 556.579 397.358C564.689 384.968 559.2 375.501 543.465 384.567Z" fill="#974800"/>
<path d="M558.369 394.206C555.812 392.016 550.731 392.244 543.461 396.431C516.183 412.146 489.905 415.001 471.878 415.001C453.868 415.001 431.198 414.546 400.312 396.431C393.042 392.174 387.961 391.946 385.386 394.171C380.148 383.432 386.034 376.179 400.312 384.571C431.198 402.685 453.868 403.141 471.878 403.141C489.905 403.141 516.183 400.285 543.461 384.571C557.826 376.284 563.66 383.467 558.369 394.206Z" fill="#632900"/>
<g opacity="0.6">
<path d="M393.526 563.876H281.192C271.215 563.876 263.053 555.713 263.053 545.736V538.455C263.053 528.478 271.215 520.316 281.192 520.316H393.526C403.503 520.316 411.667 528.478 411.667 538.455V545.736C411.667 555.713 403.503 563.876 393.526 563.876Z" fill="#EAAC1F"/>
</g>
<path d="M393.526 574.388H281.192C271.215 574.388 263.053 566.226 263.053 556.249V548.968C263.053 538.991 271.215 530.828 281.192 530.828H393.526C403.503 530.828 411.667 538.991 411.667 548.968V556.249C411.667 566.226 403.503 574.388 393.526 574.388Z" fill="#FEDD78"/>
<path d="M391.132 564.162H283.585C273.607 564.162 265.445 555.999 265.445 546.022C265.445 536.045 273.607 527.881 283.585 527.881H391.132C401.11 527.881 409.273 536.045 409.273 546.022C409.273 555.999 401.11 564.162 391.132 564.162Z" fill="#974800"/>
<path d="M409.269 546.028C409.269 548.06 408.936 550.022 408.306 551.844C405.87 544.679 399.073 539.493 391.137 539.493H283.587C278.594 539.493 274.057 541.525 270.781 544.819C268.819 546.781 267.312 549.164 266.419 551.844C265.788 550.022 265.455 548.06 265.455 546.028C265.455 541.035 267.487 536.497 270.781 533.204C274.057 529.928 278.594 527.878 283.587 527.878H391.137C401.105 527.878 409.269 536.042 409.269 546.028Z" fill="#632900"/>
<path d="M592.848 302.205C590.459 304.31 583.666 306.782 578.202 307.879C554.527 312.634 509.191 304.349 478.718 275.534C435.324 234.5 450.798 206.663 460.378 214.97C469.957 223.278 502.289 264.015 555.995 276.499C570.385 279.845 583.016 276.296 590.821 278.85C601.131 282.224 601.625 294.47 592.848 302.205Z" fill="#FDE9B1"/>
<path d="M593.545 293.561C591.272 295.793 584.971 298.71 579.507 299.807C555.831 304.561 514.492 298.843 484.019 270.028C440.624 228.995 450.797 206.663 460.377 214.971C469.956 223.278 502.1 258.83 555.807 271.314C570.197 274.66 580.74 275.439 588.545 277.994C598.855 281.368 599.781 287.435 593.545 293.561Z" fill="#974800"/>
<path d="M595.35 291.511C593.913 290.092 591.653 288.831 588.552 287.815C580.739 285.257 570.192 284.468 555.809 281.122C502.095 268.649 469.948 233.085 460.383 224.781C457.282 222.101 454.13 222.609 452.728 225.92C450.031 214.795 455.284 210.555 460.383 214.97C469.948 223.274 502.095 258.838 555.809 271.312C570.192 274.658 580.739 275.446 588.552 277.986C597.697 280.982 599.449 286.098 595.35 291.511Z" fill="#632900"/>
<path d="M77.4214 302.204C79.811 304.31 86.6032 306.782 92.0673 307.879C115.743 312.634 161.078 304.349 191.551 275.533C234.946 234.5 219.471 206.662 209.892 214.97C200.312 223.277 167.981 264.015 114.275 276.499C99.8844 279.845 87.2531 276.295 79.4484 278.85C69.1384 282.224 68.6443 294.47 77.4214 302.204Z" fill="#FDE9B1"/>
<path d="M76.7268 293.561C78.999 295.793 85.3006 298.71 90.7648 299.807C114.44 304.561 155.78 298.843 186.253 270.028C229.647 228.994 219.474 206.663 209.895 214.97C200.315 223.278 168.171 258.829 114.465 271.313C100.074 274.66 89.5315 275.439 81.7267 277.994C71.4168 281.368 70.49 287.435 76.7268 293.561Z" fill="#974800"/>
<path d="M74.922 291.511C76.3586 290.092 78.6185 288.831 81.7194 287.814C89.5329 285.257 100.079 284.468 114.463 281.122C168.176 268.649 200.324 233.085 209.889 224.781C212.99 222.1 216.142 222.608 217.543 225.92C220.241 214.795 214.987 210.555 209.889 214.97C200.324 223.274 168.176 258.838 114.463 271.311C100.079 274.658 89.5329 275.446 81.7194 277.986C72.5744 280.982 70.8225 286.098 74.922 291.511Z" fill="#632900"/>
<defs>
<linearGradient id="paint0_linear_71_1874" x1="334.734" y1="36.5657" x2="338.133" y2="657.49" gradientUnits="userSpaceOnUse">
<stop stop-color="#FDCF18"/>
<stop offset="0.47" stop-color="#F5AB0C"/>
<stop offset="0.93" stop-color="#ED8700"/>
</linearGradient>
<radialGradient id="paint1_radial_71_1874" cx="0" cy="0" r="1" gradientUnits="userSpaceOnUse" gradientTransform="translate(326.333 61.1195) scale(582.321 582.321)">
<stop offset="0.07" stop-color="#FEFEE2"/>
<stop offset="0.28" stop-color="#FDEE8C"/>
<stop offset="0.49" stop-color="#FCDE36"/>
<stop offset="0.82" stop-color="#F5B820"/>
<stop offset="1" stop-color="#EE910A"/>
</radialGradient>
</defs>
</svg>
