<svg width="676" height="676" viewBox="0 0 676 676" fill="none" xmlns="http://www.w3.org/2000/svg">
<path d="M669.935 337.542C669.935 521.118 521.116 669.935 337.542 669.935C153.966 669.935 5.14844 521.118 5.14844 337.542C5.14844 153.966 153.966 5.14868 337.542 5.14868C521.116 5.14868 669.935 153.966 669.935 337.542Z" fill="url(#paint0_linear_71_737)"/>
<path d="M633.916 338.797C631.352 506.034 496.629 639.573 333 637.064C169.373 634.555 38.8035 496.954 41.3672 329.716C43.9309 162.479 178.655 28.9416 342.283 31.449C505.91 33.9582 636.48 171.561 633.916 338.797Z" fill="url(#paint1_radial_71_737)"/>
<path d="M669.935 337.542C669.935 521.118 521.116 669.935 337.542 669.935C153.966 669.935 5.14844 521.118 5.14844 337.542C5.14844 153.966 153.966 5.14868 337.542 5.14868C521.116 5.14868 669.935 153.966 669.935 337.542Z" stroke="#E76900" stroke-width="10.2973" stroke-miterlimit="10"/>
<g opacity="0.5">
<path d="M664.172 395.965C664.172 430.584 648.276 461.49 623.386 481.783C604.332 497.318 580.006 506.632 553.505 506.632C492.386 506.632 442.838 457.085 442.838 395.965C442.838 334.846 492.386 285.298 553.505 285.298C578.705 285.298 601.937 293.72 620.541 307.903C647.058 328.12 664.172 360.044 664.172 395.965Z" fill="url(#paint2_radial_71_737)"/>
</g>
<g opacity="0.5">
<path d="M232.752 395.965C232.752 435.072 212.469 469.44 181.847 489.125C164.611 500.204 144.098 506.632 122.085 506.632C60.9658 506.632 11.418 457.085 11.418 395.965C11.418 343.177 48.3765 299.019 97.8317 287.963C105.636 286.218 113.754 285.298 122.085 285.298C183.204 285.298 232.752 334.846 232.752 395.965Z" fill="url(#paint3_radial_71_737)"/>
</g>
<path d="M494.587 429.561C445.188 462.257 405.943 479.161 336.731 479.444C267.519 479.161 228.273 462.257 178.874 429.561C175.739 427.478 165.282 430.48 168.681 441.404C174.636 460.539 231.684 521.13 336.731 521.784C441.777 521.13 499.685 460.11 504.835 440.744C507.691 430.002 497.722 427.478 494.587 429.561Z" fill="#EAAC1F"/>
<path d="M495.222 436.967C445.545 475.069 407.562 493.689 336.729 494.009C265.897 493.689 227.279 474.967 177.693 436.745C172.427 432.687 167.429 437.217 168.854 442.225C175.018 463.812 229.227 538.87 336.729 539.608C444.232 538.87 498.44 463.812 504.605 442.225C506.03 437.217 501.032 432.51 495.222 436.967Z" fill="#FEDD78"/>
<path d="M494.588 437.326C445.189 470.022 405.943 488.691 336.731 488.974C267.519 488.691 228.273 470.022 178.874 437.326C175.74 435.243 171.3 437.131 172.693 441.565C178.717 460.676 231.684 527.129 336.731 527.783C441.778 527.129 494.746 460.676 500.771 441.565C502.164 437.131 497.722 435.243 494.588 437.326Z" fill="#974800"/>
<path d="M500.764 441.56C500.378 443.41 496.065 446.735 494.581 447.724C445.194 480.42 405.945 500.855 336.738 501.138C267.514 500.855 228.281 480.42 178.876 447.724C177.393 446.735 173.762 443.991 172.695 441.56C170.904 437.48 175.75 435.236 178.876 437.32C228.281 470.015 267.514 488.686 336.738 488.969C405.945 488.686 445.194 470.015 494.581 437.32C497.725 435.236 501.712 437.01 500.764 441.56Z" fill="#632900"/>
<path d="M383.195 254.032C398.151 217.546 427.908 217.24 433.057 217.24C437.903 217.24 467.963 217.546 482.919 254.032C501.289 298.848 479.085 347.452 472.018 326.706C457.785 284.918 437.371 285.371 433.057 285.371C428.507 285.371 408.329 284.918 394.096 326.706C387.029 347.452 364.825 298.848 383.195 254.032Z" fill="#EAAC1F"/>
<path d="M383.195 273.462C398.151 236.977 467.963 236.977 482.919 273.462C501.289 318.278 479.085 366.881 472.018 346.135C457.785 304.347 437.371 304.802 433.057 304.802C428.507 304.802 408.329 304.347 394.096 346.135C387.029 366.881 364.825 318.278 383.195 273.462Z" fill="#FFE0A4"/>
<path d="M384.959 264.63C399.915 228.144 427.907 227.838 433.055 227.838C437.901 227.838 466.196 228.144 481.152 264.63C499.522 309.446 482.616 358.05 475.55 337.304C461.317 295.516 437.37 295.97 433.055 295.97C428.506 295.97 404.794 295.516 390.561 337.304C383.494 358.05 366.589 309.446 384.959 264.63Z" fill="#974800"/>
<path d="M379.418 330.793C377.933 316.256 379.277 298.538 386.837 279.744C401.215 243.976 428.117 243.693 433.063 243.693C437.709 243.693 464.893 243.976 479.271 279.744C486.813 298.538 488.175 316.238 486.709 330.775C490.666 316.185 491.477 289.795 481.161 264.625C466.201 228.149 437.902 227.83 433.063 227.83C427.905 227.83 399.926 228.149 384.965 264.625C374.632 289.813 375.461 316.203 379.418 330.793Z" fill="#632900"/>
<path d="M290.341 254.031C275.385 217.546 245.627 217.24 240.479 217.24C235.633 217.24 205.572 217.546 190.617 254.031C172.247 298.848 194.451 347.452 201.518 326.706C215.75 284.918 236.164 285.371 240.479 285.371C245.028 285.371 265.207 284.918 279.44 326.706C286.507 347.452 308.711 298.848 290.341 254.031Z" fill="#EAAC1F"/>
<path d="M290.341 273.462C275.385 236.977 205.572 236.977 190.617 273.462C172.247 318.278 194.451 366.881 201.518 346.135C215.75 304.347 236.164 304.802 240.479 304.802C245.028 304.802 265.207 304.347 279.44 346.135C286.507 366.881 308.711 318.278 290.341 273.462Z" fill="#FFE0A4"/>
<path d="M288.574 264.63C273.618 228.144 245.626 227.838 240.477 227.838C235.631 227.838 207.337 228.144 192.381 264.63C174.011 309.446 190.916 358.05 197.983 337.304C212.215 295.516 236.163 295.969 240.477 295.969C245.027 295.969 268.739 295.516 282.972 337.304C290.038 358.05 306.944 309.446 288.574 264.63Z" fill="#974800"/>
<path d="M294.119 330.793C295.604 316.256 294.26 298.538 286.7 279.744C272.322 243.976 245.421 243.693 240.474 243.693C235.828 243.693 208.644 243.976 194.266 279.744C186.724 298.538 185.362 316.238 186.828 330.775C182.871 316.185 182.06 289.795 192.376 264.625C207.337 228.149 235.635 227.83 240.474 227.83C245.632 227.83 273.611 228.149 288.572 264.625C298.905 289.813 298.076 316.203 294.119 330.793Z" fill="#632900"/>
<defs>
<linearGradient id="paint0_linear_71_737" x1="335.769" y1="36.6788" x2="339.178" y2="659.524" gradientUnits="userSpaceOnUse">
<stop stop-color="#FDCF18"/>
<stop offset="0.47" stop-color="#F5AB0C"/>
<stop offset="0.93" stop-color="#ED8700"/>
</linearGradient>
<radialGradient id="paint1_radial_71_737" cx="0" cy="0" r="1" gradientUnits="userSpaceOnUse" gradientTransform="translate(327.346 61.3104) scale(584.122 584.122)">
<stop offset="0.07" stop-color="#FEFEE2"/>
<stop offset="0.28" stop-color="#FDEE8C"/>
<stop offset="0.49" stop-color="#FCDE36"/>
<stop offset="0.82" stop-color="#F5B820"/>
<stop offset="1" stop-color="#EE910A"/>
</radialGradient>
<radialGradient id="paint2_radial_71_737" cx="0" cy="0" r="1" gradientUnits="userSpaceOnUse" gradientTransform="translate(552.613 395.207) scale(110.667)">
<stop stop-color="#F10C1C"/>
<stop offset="0.59" stop-color="#E01D21" stop-opacity="0.5"/>
<stop offset="1" stop-color="#CF2D26" stop-opacity="0"/>
</radialGradient>
<radialGradient id="paint3_radial_71_737" cx="0" cy="0" r="1" gradientUnits="userSpaceOnUse" gradientTransform="translate(120.667 395.207) scale(110.667 110.667)">
<stop stop-color="#F10C1C"/>
<stop offset="0.59" stop-color="#E01D21" stop-opacity="0.5"/>
<stop offset="1" stop-color="#CF2D26" stop-opacity="0"/>
</radialGradient>
</defs>
</svg>
