<svg width="765" height="673" viewBox="0 0 765 673" fill="none" xmlns="http://www.w3.org/2000/svg">
<path d="M713.999 336.017C713.999 518.764 565.854 666.909 383.107 666.909C200.36 666.909 52.2148 518.764 52.2148 336.017C52.2148 153.27 200.36 5.12549 383.107 5.12549C565.854 5.12549 713.999 153.27 713.999 336.017Z" fill="url(#paint0_linear_71_6379)"/>
<path d="M678.138 337.265C675.585 503.747 541.471 636.682 378.582 634.185C215.693 631.689 85.7156 494.707 88.2664 328.225C90.8189 161.743 224.933 28.8076 387.822 31.3041C550.711 33.8006 680.689 170.782 678.138 337.265Z" fill="url(#paint1_radial_71_6379)"/>
<path d="M713.999 336.017C713.999 518.764 565.854 666.909 383.107 666.909C200.36 666.909 52.2148 518.764 52.2148 336.017C52.2148 153.27 200.36 5.12549 383.107 5.12549C565.854 5.12549 713.999 153.27 713.999 336.017Z" stroke="#E76900" stroke-width="10.2512" stroke-miterlimit="10"/>
<path d="M456.477 242.464C458.404 244.759 458.807 247.965 457.528 250.663L418.898 332.74C402.921 362.294 423.401 385.349 454.112 373.524L537.257 344.197C547.313 340.15 551.378 343.426 560.855 352.011L617.705 408.247C639.008 429.55 680.984 427.903 680.984 386.961L674.887 298.858C674.729 295.862 676.341 293.041 679.004 291.675L702.625 276.612C696.458 242.362 689.3 204.134 674.29 186.042L664.306 178.186C661.397 177.433 659.19 175.068 658.664 172.125L630.9 161.809C612.33 134.83 613.448 97.6511 587.905 77.2764L542.741 148.684C541.129 151.224 538.186 152.591 535.19 152.17L416.708 127.994C394.792 125.331 381.635 151.557 400.626 174.034C414.869 190.905 456.477 242.464 456.477 242.464Z" fill="url(#paint2_linear_71_6379)"/>
<path d="M309.966 242.464C308.039 244.759 307.636 247.965 308.915 250.663L347.544 332.74C363.522 362.294 343.042 385.349 312.331 373.524L229.185 344.197C219.129 340.15 215.065 343.426 205.587 352.011L148.738 408.247C127.434 429.55 85.4587 427.903 85.4587 386.961L91.5554 298.858C91.713 295.862 90.1013 293.041 87.4384 291.675L63.4775 279.28C69.6442 245.03 78.3582 219.89 104.53 193.36L102.137 178.186C105.045 177.433 107.252 175.068 107.778 172.125L133.575 160.876C152.145 133.896 152.995 97.6511 178.538 77.2764L223.702 148.684C225.314 151.224 228.257 152.591 231.252 152.17L349.734 127.994C371.65 125.331 384.807 151.557 365.816 174.034C351.573 190.905 309.966 242.464 309.966 242.464Z" fill="url(#paint3_linear_71_6379)"/>
<path d="M382.895 590.598C250.638 590.598 136.748 422.145 139.861 375.399C142.181 340.59 188.189 394.607 382.895 398.82C577.6 394.607 623.036 340.633 625.928 375.399C628.845 410.493 515.151 590.598 382.895 590.598Z" fill="#EAAC1F"/>
<path d="M382.894 413.072C176.591 408.427 139.768 349.006 139.768 393.098C139.768 516.255 246.616 618.299 382.894 618.299C519.171 618.299 626.017 516.255 626.017 393.098C626.017 349.006 589.197 408.427 382.894 413.072Z" fill="#FEDD78"/>
<path d="M623.016 391.243C623.016 506.329 513.518 603.257 382.896 603.257C252.272 603.257 142.774 506.329 142.774 391.243C142.774 390.104 142.809 389.055 142.864 388.059C145.034 353.242 190.594 407.267 382.896 411.483C575.194 407.267 620.756 353.242 622.925 388.059C622.979 389.055 623.016 390.104 623.016 391.243Z" fill="#974800"/>
<path d="M587.543 458.256C579.142 474.586 498.593 508.226 384.987 508.226C270.318 508.226 186.141 475.05 178.907 459.017C171.057 439.938 164.599 411.967 164.636 411.039C166.572 378.788 213.759 436.193 384.987 440.107C556.235 436.193 599.589 380.689 601.523 412.94C601.56 413.868 595.013 440.219 587.543 458.256Z" fill="#632900"/>
<path d="M601.594 413.235C599.91 428.319 595.008 443.496 587.54 458.255C570.14 465.147 496.525 491.317 382.923 491.317C268.251 491.317 198.093 466.719 178.902 459.016C171.054 443.406 166.078 427.418 164.559 411.681C164.468 410.814 164.596 410.015 164.633 409.256C166.567 382.867 211.675 429.458 382.903 432.658C554.149 429.458 599.584 384.423 601.519 410.812C601.555 411.572 601.683 412.368 601.594 413.235Z" fill="#F4F4F4"/>
<path d="M599.031 402.329C591.216 389.701 553.567 428.061 382.987 428.076C212.406 428.061 173.566 388.616 165.751 401.246C157.718 414.226 173.438 449.958 178.223 459.017C185.777 462.023 195.833 465.674 209.82 469.597C200.621 462.443 187.853 434.175 203.972 427.172C228.718 418.241 271.952 434.809 382.891 434.809C493.831 434.809 539.14 418.069 563.886 427.001C582.707 434.374 568.071 461.377 561.898 467.028C575.759 462.894 579.991 461.264 587.544 458.258C592.328 449.197 607.063 415.308 599.031 402.329Z" fill="#C8D5D6"/>
<path d="M572.403 519.894C590.707 489.018 601.253 453.497 601.253 416.057C601.253 414.916 601.234 413.867 601.18 412.874C599.209 378.056 557.771 428.774 382.89 432.991C208.025 428.774 166.587 378.056 164.617 412.874C164.562 413.867 164.527 414.916 164.527 416.057C164.527 453.514 175.09 489.057 193.43 519.948C161.796 484.012 142.769 439.192 142.769 391.243C142.769 390.104 142.804 389.055 142.858 388.06C145.029 353.242 190.59 407.267 382.89 411.481C575.188 407.267 620.75 353.242 622.921 388.06C622.975 389.055 623.012 390.104 623.012 391.243C623.012 439.173 604.002 483.954 572.403 519.894Z" fill="#632900"/>
<path d="M749.14 215.727L657.313 263.468C654.882 264.733 653.41 267.301 653.552 270.039L659.127 377.487C659.915 392.685 641.557 400.861 630.788 390.108L555.172 314.596C553.17 312.597 550.163 311.999 547.549 313.082L448.717 354.035C434.672 359.855 420.832 345.317 427.335 331.573L473.375 234.262C474.544 231.79 474.167 228.864 472.41 226.771L405.881 147.508" stroke="#B07A11" stroke-width="17.9395" stroke-linecap="round" stroke-linejoin="round"/>
<path d="M619.998 50.1566L638.716 154.173C639.201 156.874 641.224 159.041 643.884 159.716L745.633 185.523C760.125 189.199 762.404 208.832 749.138 215.729L657.312 263.469C654.881 264.734 653.411 267.302 653.553 270.04L659.125 377.49C659.914 392.688 641.557 400.862 630.788 390.109L555.173 314.597C553.17 312.598 550.162 312.002 547.548 313.085L448.718 354.036C434.673 359.855 420.831 345.32 427.334 331.576L473.374 234.265C474.543 231.793 474.166 228.867 472.409 226.773L405.882 147.508C396.287 136.075 405.863 118.837 420.64 120.942L525.84 135.937C528.566 136.326 531.268 135.08 532.741 132.752L588.851 44.0688C597.153 30.947 617.248 34.8748 619.998 50.1566Z" fill="url(#paint4_linear_71_6379)"/>
<path d="M605.824 72.1842L621.976 161.945C622.938 167.288 626.936 171.577 632.199 172.912L718.936 194.912C724.996 196.449 725.947 204.658 720.4 207.542L634.101 252.41L637.169 332.323C637.528 341.671 626.227 346.598 619.622 339.974L566.592 286.782C561.609 281.784 554.1 280.293 547.587 283.009L478.19 311.945C469.566 315.542 461.006 306.691 464.886 298.191L498.108 225.417L435.635 150.981C431.623 146.201 435.626 138.993 441.805 139.874L531.278 152.628C536.673 153.397 542.018 150.929 544.931 146.323L593.378 69.7525C596.695 64.5108 604.725 66.0788 605.824 72.1842Z" fill="url(#paint5_linear_71_6379)"/>
<path d="M720.396 207.541L666.308 235.667C666.298 235.674 666.289 235.673 666.278 235.68C624.882 252.983 596.629 253.935 564.438 247.545C526.902 240.094 498.062 225.366 458.851 178.531L458.635 178.389L435.633 150.982C431.621 146.199 435.622 138.99 441.806 139.875L528.666 152.254L531.28 152.629C536.676 153.393 542.021 150.926 544.927 146.325L546.336 144.088L546.344 144.09L593.378 69.7548C596.691 64.513 604.725 66.0792 605.823 72.1794L621.51 159.353L621.98 161.944C622.94 167.285 626.932 171.579 632.197 172.912L634.747 173.562L634.756 173.564L718.935 194.911C724.99 196.447 725.948 204.655 720.396 207.541Z" fill="url(#paint6_linear_71_6379)"/>
<path d="M619.998 50.1566L638.716 154.173C639.201 156.874 641.224 159.041 643.884 159.716L745.633 185.523C760.125 189.199 762.404 208.832 749.138 215.729L657.312 263.469C654.881 264.734 653.411 267.302 653.553 270.04L659.125 377.49C659.914 392.688 641.557 400.862 630.788 390.109L555.173 314.597C553.17 312.598 550.162 312.002 547.548 313.085L448.718 354.036C434.673 359.855 420.831 345.32 427.334 331.576L473.374 234.265C474.543 231.793 474.166 228.867 472.409 226.773L405.882 147.508C396.287 136.075 405.863 118.837 420.64 120.942L525.84 135.937C528.566 136.326 531.268 135.08 532.741 132.752L588.851 44.0688C597.153 30.947 617.248 34.8748 619.998 50.1566Z" stroke="#D4A420" stroke-width="10.2512" stroke-linecap="round" stroke-linejoin="round"/>
<path d="M749.14 215.727L657.313 263.468C654.882 264.733 653.41 267.301 653.552 270.039L659.127 377.487C659.915 392.685 641.557 400.861 630.788 390.108L555.172 314.596C553.17 312.597 550.163 311.999 547.549 313.082L448.717 354.035C434.672 359.855 420.832 345.317 427.335 331.573L473.375 234.262C474.544 231.79 474.167 228.864 472.41 226.771L405.881 147.508" stroke="#B07A11" stroke-width="10.2512" stroke-linecap="round" stroke-linejoin="round"/>
<path d="M746 209.444C746 209.444 764.947 199.84 761.145 188.64C761.145 188.64 766.408 195.926 764.632 205.164C762.857 214.402 757.307 219.006 752.749 221.716L746 209.444Z" fill="#BC8519"/>
<path d="M411.295 143.07C411.295 143.07 397.651 126.157 405.633 117.427C405.633 117.427 397.886 121.986 395.801 131.159C393.716 140.332 396.262 146.618 400.195 151.551L411.295 143.07Z" fill="#BC8519"/>
<path d="M15.8584 215.727L107.685 263.468C110.116 264.733 111.588 267.301 111.446 270.039L105.871 377.487C105.083 392.685 123.441 400.861 134.21 390.108L209.826 314.596C211.829 312.597 214.835 311.999 217.449 313.082L316.281 354.035C330.326 359.855 344.166 345.317 337.663 331.573L291.623 234.262C290.454 231.79 290.831 228.864 292.588 226.771L359.117 147.508" stroke="#B07A11" stroke-width="17.9395" stroke-linecap="round" stroke-linejoin="round"/>
<path d="M145 50.1566L126.282 154.173C125.797 156.874 123.774 159.041 121.114 159.716L19.3651 185.523C4.87334 189.199 2.59411 208.832 15.8595 215.729L107.686 263.469C110.117 264.734 111.587 267.302 111.445 270.04L105.873 377.49C105.084 392.688 123.441 400.862 134.21 390.109L209.826 314.597C211.828 312.598 214.836 312.002 217.45 313.085L316.28 354.036C330.325 359.855 344.167 345.32 337.664 331.576L291.624 234.265C290.455 231.793 290.832 228.867 292.589 226.773L359.116 147.508C368.711 136.075 359.135 118.837 344.358 120.942L239.158 135.937C236.432 136.326 233.73 135.08 232.257 132.752L176.147 44.0688C167.845 30.947 147.75 34.8748 145 50.1566Z" fill="url(#paint7_linear_71_6379)"/>
<path d="M159.174 72.1842L143.022 161.945C142.06 167.288 138.062 171.577 132.799 172.912L46.0623 194.912C40.0025 196.449 39.0512 204.658 44.5977 207.542L130.897 252.41L127.829 332.323C127.47 341.671 138.772 346.598 145.376 339.974L198.406 286.782C203.389 281.784 210.898 280.293 217.411 283.009L286.808 311.945C295.432 315.542 303.992 306.691 300.112 298.191L266.89 225.417L329.363 150.981C333.375 146.201 329.372 138.993 323.193 139.874L233.72 152.628C228.326 153.397 222.98 150.929 220.067 146.323L171.62 69.7525C168.303 64.5108 160.273 66.0788 159.174 72.1842Z" fill="url(#paint8_linear_71_6379)"/>
<path d="M44.6016 207.541L98.6899 235.667C98.7005 235.674 98.7092 235.673 98.7197 235.68C140.116 252.983 168.369 253.935 200.56 247.545C238.096 240.094 266.936 225.366 306.147 178.531L306.363 178.389L329.365 150.982C333.377 146.199 329.376 138.99 323.192 139.875L236.332 152.254L233.718 152.629C228.322 153.393 222.977 150.926 220.071 146.325L218.662 144.088L218.654 144.09L171.62 69.7548C168.307 64.513 160.273 66.0792 159.175 72.1794L143.488 159.353L143.018 161.944C142.058 167.285 138.066 171.579 132.801 172.912L130.251 173.562L130.242 173.564L46.0626 194.911C40.0081 196.447 39.0497 204.655 44.6016 207.541Z" fill="url(#paint9_linear_71_6379)"/>
<path d="M145 50.1566L126.282 154.173C125.797 156.874 123.774 159.041 121.114 159.716L19.3651 185.523C4.87334 189.199 2.59411 208.832 15.8595 215.729L107.686 263.469C110.117 264.734 111.587 267.302 111.445 270.04L105.873 377.49C105.084 392.688 123.441 400.862 134.21 390.109L209.826 314.597C211.828 312.598 214.836 312.002 217.45 313.085L316.28 354.036C330.325 359.855 344.167 345.32 337.664 331.576L291.624 234.265C290.455 231.793 290.832 228.867 292.589 226.773L359.116 147.508C368.711 136.075 359.135 118.837 344.358 120.942L239.158 135.937C236.432 136.326 233.73 135.08 232.257 132.752L176.147 44.0688C167.845 30.947 147.75 34.8748 145 50.1566Z" stroke="#D4A420" stroke-width="10.2512" stroke-linecap="round" stroke-linejoin="round"/>
<path d="M15.8584 215.727L107.685 263.468C110.116 264.733 111.588 267.301 111.446 270.039L105.871 377.487C105.083 392.685 123.441 400.861 134.21 390.108L209.826 314.596C211.829 312.597 214.835 311.999 217.449 313.082L316.281 354.035C330.326 359.855 344.166 345.317 337.663 331.573L291.623 234.262C290.454 231.79 290.831 228.864 292.588 226.771L359.117 147.508" stroke="#B07A10" stroke-width="10.2512" stroke-linecap="round" stroke-linejoin="round"/>
<path d="M18.9978 209.444C18.9978 209.444 0.0509194 199.84 3.85256 188.64C3.85256 188.64 -1.41017 195.926 0.366263 205.164C2.14095 214.402 7.69099 219.006 12.2495 221.716L18.9978 209.444Z" fill="#B07A11"/>
<path d="M353.703 143.07C353.703 143.07 367.347 126.157 359.365 117.427C359.365 117.427 367.112 121.986 369.197 131.159C371.282 140.332 368.736 146.618 364.803 151.551L353.703 143.07Z" fill="#B07A11"/>
<defs>
<linearGradient id="paint0_linear_71_6379" x1="381.285" y1="35.0972" x2="382.662" y2="657.155" gradientUnits="userSpaceOnUse">
<stop stop-color="#FDCF18"/>
<stop offset="0.47" stop-color="#F5AB0C"/>
<stop offset="0.93" stop-color="#ED8700"/>
</linearGradient>
<radialGradient id="paint1_radial_71_6379" cx="0" cy="0" r="1" gradientUnits="userSpaceOnUse" gradientTransform="translate(373.47 61.1532) scale(579.068 579.068)">
<stop offset="0.07" stop-color="#FEFEE2"/>
<stop offset="0.28" stop-color="#FDEE8C"/>
<stop offset="0.49" stop-color="#FCDE36"/>
<stop offset="0.82" stop-color="#F5B820"/>
<stop offset="1" stop-color="#EE910A"/>
</radialGradient>
<linearGradient id="paint2_linear_71_6379" x1="684.3" y1="295.934" x2="558.282" y2="342.822" gradientUnits="userSpaceOnUse">
<stop stop-color="#F6AE0D"/>
<stop offset="0.33" stop-color="#F0AD16"/>
<stop offset="1" stop-color="#EAAC1F"/>
</linearGradient>
<linearGradient id="paint3_linear_71_6379" x1="79.2885" y1="346.89" x2="175.389" y2="368.575" gradientUnits="userSpaceOnUse">
<stop stop-color="#F4A80B"/>
<stop offset="0.33" stop-color="#EFAA15"/>
<stop offset="1" stop-color="#EAAC1F"/>
</linearGradient>
<linearGradient id="paint4_linear_71_6379" x1="590.148" y1="118.658" x2="550.421" y2="323.044" gradientUnits="userSpaceOnUse">
<stop stop-color="#F8CF3D"/>
<stop offset="0.35" stop-color="#FADA4C"/>
<stop offset="0.58" stop-color="#FCE55B"/>
<stop offset="0.78" stop-color="#F0CD49"/>
<stop offset="1" stop-color="#E5B437"/>
</linearGradient>
<linearGradient id="paint5_linear_71_6379" x1="572.685" y1="238.293" x2="561.683" y2="303.236" gradientUnits="userSpaceOnUse">
<stop stop-color="#FFED4A"/>
<stop offset="0.61" stop-color="#FADA41"/>
<stop offset="1" stop-color="#F6C738"/>
</linearGradient>
<linearGradient id="paint6_linear_71_6379" x1="595.363" y1="79.6197" x2="569.811" y2="240.995" gradientUnits="userSpaceOnUse">
<stop offset="0.19" stop-color="white"/>
<stop offset="0.73" stop-color="white" stop-opacity="0.7"/>
<stop offset="1" stop-color="white" stop-opacity="0.4"/>
</linearGradient>
<linearGradient id="paint7_linear_71_6379" x1="174.85" y1="118.658" x2="214.577" y2="323.044" gradientUnits="userSpaceOnUse">
<stop stop-color="#F8CF3D"/>
<stop offset="0.35" stop-color="#FADA4C"/>
<stop offset="0.58" stop-color="#FCE55B"/>
<stop offset="0.78" stop-color="#F0CD49"/>
<stop offset="1" stop-color="#E5B437"/>
</linearGradient>
<linearGradient id="paint8_linear_71_6379" x1="192.313" y1="238.293" x2="203.315" y2="303.236" gradientUnits="userSpaceOnUse">
<stop stop-color="#FFED4A"/>
<stop offset="0.61" stop-color="#FADA41"/>
<stop offset="1" stop-color="#F6C738"/>
</linearGradient>
<linearGradient id="paint9_linear_71_6379" x1="169.635" y1="79.6197" x2="195.187" y2="240.995" gradientUnits="userSpaceOnUse">
<stop offset="0.19" stop-color="white"/>
<stop offset="0.73" stop-color="white" stop-opacity="0.7"/>
<stop offset="1" stop-color="white" stop-opacity="0.4"/>
</linearGradient>
</defs>
</svg>
