<svg width="675" height="675" viewBox="0 0 675 675" fill="none" xmlns="http://www.w3.org/2000/svg">
<path d="M669.815 337.481C669.815 521.024 521.023 669.815 337.481 669.815C153.938 669.815 5.14746 521.024 5.14746 337.481C5.14746 153.938 153.938 5.14746 337.481 5.14746C521.023 5.14746 669.815 153.938 669.815 337.481Z" fill="url(#paint0_linear_71_1771)"/>
<path d="M633.802 338.733C631.239 505.941 496.539 639.456 332.94 636.947C169.342 634.438 38.7961 496.862 41.3594 329.655C43.9226 162.447 178.622 28.934 342.221 31.441C505.819 33.9497 636.365 171.528 633.802 338.733Z" fill="url(#paint1_radial_71_1771)"/>
<path d="M669.815 337.481C669.815 521.024 521.023 669.815 337.481 669.815C153.938 669.815 5.14746 521.024 5.14746 337.481C5.14746 153.938 153.938 5.14746 337.481 5.14746C521.023 5.14746 669.815 153.938 669.815 337.481Z" stroke="#E76900" stroke-width="10.2955" stroke-miterlimit="10"/>
<path d="M485.771 258.642C485.771 291.036 467.296 317.296 444.506 317.296C421.715 317.296 403.242 291.036 403.242 258.642C403.242 226.248 421.715 199.989 444.506 199.989C467.296 199.989 485.771 226.248 485.771 258.642Z" fill="#EAAC1F"/>
<path d="M485.772 279.727C485.772 312.121 467.297 338.381 444.507 338.381C421.716 338.381 403.243 312.121 403.243 279.727C403.243 247.333 421.716 221.074 444.507 221.074C467.297 221.074 485.772 247.333 485.772 279.727Z" fill="#FFDE9C"/>
<path d="M483.192 268.443C483.192 300.837 465.872 327.097 444.506 327.097C423.141 327.097 405.822 300.837 405.822 268.443C405.822 236.049 423.141 209.79 444.506 209.79C465.872 209.79 483.192 236.049 483.192 268.443Z" fill="#974800"/>
<path d="M483.193 268.449C483.193 271.025 483.08 273.564 482.856 276.047C480.429 247.218 464.18 224.972 444.51 224.972C424.841 224.972 408.592 247.218 406.165 276.047C405.941 273.564 405.828 271.025 405.828 268.449C405.828 236.048 423.147 209.795 444.51 209.795C465.874 209.795 483.193 236.048 483.193 268.449Z" fill="#632900"/>
<path d="M271.415 258.642C271.415 291.036 252.94 317.296 230.15 317.296C207.36 317.296 188.887 291.036 188.887 258.642C188.887 226.248 207.36 199.989 230.15 199.989C252.94 199.989 271.415 226.248 271.415 258.642Z" fill="#EAAC1F"/>
<path d="M271.415 279.725C271.415 312.119 252.94 338.379 230.15 338.379C207.36 338.379 188.887 312.119 188.887 279.725C188.887 247.331 207.36 221.072 230.15 221.072C252.94 221.072 271.415 247.331 271.415 279.725Z" fill="#FFDE9C"/>
<path d="M268.836 268.443C268.836 300.837 251.515 327.097 230.15 327.097C208.785 327.097 191.466 300.837 191.466 268.443C191.466 236.049 208.785 209.79 230.15 209.79C251.515 209.79 268.836 236.049 268.836 268.443Z" fill="#974800"/>
<path d="M268.836 268.449C268.836 271.025 268.724 273.564 268.499 276.047C266.073 247.218 249.824 224.972 230.154 224.972C210.484 224.972 194.235 247.218 191.809 276.047C191.584 273.564 191.472 271.025 191.472 268.449C191.472 236.048 208.791 209.795 230.154 209.795C251.518 209.795 268.836 236.048 268.836 268.449Z" fill="#632900"/>
<g opacity="0.7">
<path d="M494.245 460.124H181.32C171.314 460.124 163.126 451.938 163.126 441.932V434.63C163.126 424.623 171.314 416.438 181.32 416.438H494.245C504.252 416.438 512.439 424.623 512.439 434.63V441.932C512.439 451.938 504.252 460.124 494.245 460.124Z" fill="#EAAC1F"/>
</g>
<path d="M494.245 472.138H181.32C171.314 472.138 163.126 463.951 163.126 453.944V446.644C163.126 436.638 171.314 428.45 181.32 428.45H494.245C504.252 428.45 512.439 436.638 512.439 446.644V453.944C512.439 463.951 504.252 472.138 494.245 472.138Z" fill="#FEDD78"/>
<path d="M491.849 461.881H183.723C173.717 461.881 165.529 453.695 165.529 443.689C165.529 433.683 173.717 425.497 183.723 425.497H491.849C501.855 425.497 510.043 433.683 510.043 443.689C510.043 453.695 501.855 461.881 491.849 461.881Z" fill="#974800"/>
<path d="M510.036 443.694C510.036 445.732 509.702 447.7 509.07 449.527C506.628 442.341 499.81 437.14 491.851 437.14H183.722C178.715 437.14 174.164 439.178 170.878 442.482C168.911 444.449 167.4 446.839 166.503 449.527C165.871 447.7 165.537 445.732 165.537 443.694C165.537 438.686 167.575 434.136 170.878 430.833C174.164 427.547 178.715 425.491 183.722 425.491H491.851C501.849 425.491 510.036 433.679 510.036 443.694Z" fill="#632900"/>
<defs>
<linearGradient id="paint0_linear_71_1771" x1="335.709" y1="36.6719" x2="339.117" y2="659.405" gradientUnits="userSpaceOnUse">
<stop stop-color="#FDCF18"/>
<stop offset="0.47" stop-color="#F5AB0C"/>
<stop offset="0.93" stop-color="#ED8700"/>
</linearGradient>
<radialGradient id="paint1_radial_71_1771" cx="0" cy="0" r="1" gradientUnits="userSpaceOnUse" gradientTransform="translate(327.287 61.297) scale(584.017 584.017)">
<stop offset="0.07" stop-color="#FEFEE2"/>
<stop offset="0.28" stop-color="#FDEE8C"/>
<stop offset="0.49" stop-color="#FCDE36"/>
<stop offset="0.82" stop-color="#F5B820"/>
<stop offset="1" stop-color="#EE910A"/>
</radialGradient>
</defs>
</svg>
