<svg width="678" height="678" viewBox="0 0 678 678" fill="none" xmlns="http://www.w3.org/2000/svg">
<path d="M670.29 338.654C670.29 521.812 521.813 670.288 338.658 670.288C155.504 670.288 7.02539 521.812 7.02539 338.654C7.02539 155.501 155.504 7.02344 338.658 7.02344C521.813 7.02344 670.29 155.501 670.29 338.654Z" fill="url(#paint0_linear_71_297)"/>
<path d="M634.352 339.907C631.796 506.761 497.381 639.993 334.127 637.492C170.875 634.989 40.6026 497.7 43.1591 330.844C45.7185 163.993 180.134 30.7611 343.389 33.2632C506.639 35.7652 636.91 173.054 634.352 339.907Z" fill="url(#paint1_radial_71_297)"/>
<path d="M578.121 99.1902C516.859 37.9174 432.151 -0.00301995 338.655 1.80388e-07C245.161 -0.00301995 160.452 37.9174 99.1902 99.1902C37.9174 160.452 -0.00301995 245.161 1.80388e-07 338.655C-0.00301995 432.15 37.9174 516.859 99.1902 578.121C160.452 639.397 245.161 677.316 338.655 677.313C432.151 677.316 516.859 639.397 578.121 578.121C639.395 516.859 677.316 432.15 677.311 338.655C677.316 245.161 639.395 160.452 578.121 99.1902ZM568.188 568.19C509.424 626.944 428.316 663.261 338.655 663.266C248.995 663.261 167.888 626.944 109.123 568.19C50.3687 509.424 14.0498 428.317 14.0468 338.655C14.0498 248.995 50.3687 167.889 109.123 109.123C167.888 50.3702 248.995 14.0498 338.655 14.0468C428.316 14.0498 509.424 50.3702 568.188 109.123C626.943 167.889 663.261 248.995 663.264 338.655C663.261 428.317 626.943 509.424 568.188 568.19Z" fill="#E76900"/>
<path d="M335.885 517.365C271.484 517.365 236.835 481.145 236.835 481.145C236.835 510.042 270.375 570.596 335.885 570.596C401.394 570.596 434.934 510.042 434.934 481.145C434.934 481.145 400.285 517.365 335.885 517.365Z" fill="#FEDD78"/>
<path d="M434.022 478.098C426.601 472.859 399.983 502.069 335.885 502.069C271.788 502.069 245.174 472.859 237.752 478.098C228.432 484.676 273.281 527.486 335.885 527.486C398.489 527.486 443.343 484.676 434.022 478.098Z" fill="#EAAC1F"/>
<path d="M426.952 486.614C419.715 481.639 398.381 511.76 335.885 511.76C273.388 511.76 252.053 481.639 244.817 486.614C235.729 492.863 277.742 562.064 335.885 562.064C394.027 562.064 436.04 492.863 426.952 486.614Z" fill="#974800"/>
<path d="M335.884 523.796C395.869 523.796 417.925 496.039 426 498.233C428.487 492.295 428.925 487.97 426.952 486.614C419.714 481.639 398.381 511.76 335.884 511.76C273.387 511.76 252.052 481.639 244.816 486.614C242.843 487.97 243.281 492.295 245.767 498.233C253.842 496.039 275.897 523.796 335.884 523.796Z" fill="#632900"/>
<path d="M112.897 298.358C120.446 293.728 139.058 339.304 201.452 339.304C263.846 339.304 282.459 293.728 290.007 298.358C297.541 302.978 285.561 383.522 201.452 383.522C117.342 383.522 105.364 302.978 112.897 298.358Z" fill="#FFDF9C"/>
<path d="M112.897 298.357C120.446 293.728 139.058 317.618 201.452 317.618C263.846 317.618 282.459 293.728 290.007 298.357C297.541 302.977 268.729 355.791 201.452 355.791C134.175 355.791 105.364 302.977 112.897 298.357Z" fill="#EAAC1F"/>
<path d="M284.949 306.27C277.331 301.599 264.417 327.622 201.454 327.622C138.489 327.622 125.574 301.599 117.957 306.27C110.354 310.933 133.562 372.248 201.454 372.248C269.344 372.248 292.55 310.933 284.949 306.27Z" fill="#974800"/>
<path d="M201.454 339.522C264.022 339.522 277.165 313.838 284.803 318.098C286.82 311.926 286.805 307.408 284.949 306.27C277.333 301.599 264.418 327.624 201.454 327.624C138.491 327.624 125.576 301.599 117.959 306.27C116.104 307.408 116.089 311.926 118.106 318.098C125.744 313.838 138.887 339.522 201.454 339.522Z" fill="#632900"/>
<path d="M382.217 298.358C389.766 293.728 408.379 339.304 470.773 339.304C533.166 339.304 551.779 293.728 559.328 298.358C566.861 302.978 554.881 383.522 470.773 383.522C386.663 383.522 374.684 302.978 382.217 298.358Z" fill="#FFDF9C"/>
<path d="M382.218 298.357C389.766 293.728 408.379 317.618 470.773 317.618C533.166 317.618 551.779 293.728 559.328 298.357C566.861 302.977 538.05 355.791 470.773 355.791C403.496 355.791 374.684 302.977 382.218 298.357Z" fill="#EAAC1F"/>
<path d="M554.264 306.27C546.646 301.599 533.733 327.622 470.769 327.622C407.804 327.622 394.889 301.599 387.273 306.27C379.67 310.933 402.877 372.248 470.769 372.248C538.66 372.248 561.866 310.933 554.264 306.27Z" fill="#974800"/>
<path d="M470.771 339.522C533.338 339.522 546.482 313.838 554.119 318.098C556.136 311.926 556.121 307.408 554.266 306.27C546.649 301.599 533.734 327.624 470.771 327.624C407.807 327.624 394.892 301.599 387.276 306.27C385.42 307.408 385.405 311.926 387.422 318.098C395.06 313.838 408.203 339.522 470.771 339.522Z" fill="#632900"/>
<path d="M245.071 199.157C245.065 190.073 229.173 176.963 196.021 181.349C120.13 191.388 87.7457 263.803 96.932 272.07C104.435 278.822 121.171 237.269 197.604 216.29C221.709 209.674 245.08 211.381 245.071 199.157Z" fill="#FFDF9C"/>
<path d="M238.444 192.021C238.438 183.336 222.042 175.367 193.865 179.414C129.877 188.601 90.0094 255.943 97.8691 263.555C104.765 270.234 121.194 228.46 193.527 208.402C216.338 202.076 238.453 203.709 238.444 192.021Z" fill="#974800"/>
<path d="M98.4191 263.949C106.091 242.824 142.075 197.297 193.865 189.861C216.175 186.658 231.088 190.988 236.34 197.24C237.696 195.861 238.446 194.165 238.444 192.021C238.438 183.337 222.042 175.368 193.865 179.413C129.877 188.601 90.0094 255.943 97.8691 263.555C98.0444 263.725 98.2302 263.84 98.4191 263.949Z" fill="#632900"/>
<path d="M426.685 199.157C426.692 190.073 442.581 176.963 475.733 181.349C551.623 191.388 584.009 263.803 574.823 272.07C567.32 278.822 550.582 237.269 474.149 216.29C450.045 209.674 426.674 211.381 426.685 199.157Z" fill="#FFDF9C"/>
<path d="M433.313 192.021C433.319 183.336 449.713 175.367 477.89 179.414C541.879 188.601 581.746 255.943 573.888 263.555C566.992 270.234 550.561 228.46 478.228 208.402C455.417 202.076 433.302 203.709 433.313 192.021Z" fill="#974800"/>
<path d="M573.338 263.949C565.667 242.824 529.682 197.297 477.891 189.861C455.582 186.658 440.669 190.988 435.417 197.24C434.06 195.861 433.309 194.165 433.313 192.021C433.319 183.337 449.715 175.368 477.891 179.413C541.881 188.601 581.746 255.943 573.888 263.555C573.712 263.725 573.527 263.84 573.338 263.949Z" fill="#632900"/>
<defs>
<linearGradient id="paint0_linear_71_297" x1="337.509" y1="39.5243" x2="337.564" y2="658.059" gradientUnits="userSpaceOnUse">
<stop stop-color="#FDCF18"/>
<stop offset="0.47" stop-color="#F5AB0C"/>
<stop offset="0.93" stop-color="#ED8700"/>
</linearGradient>
<radialGradient id="paint1_radial_71_297" cx="0" cy="0" r="1" gradientUnits="userSpaceOnUse" gradientTransform="translate(329.206 64.6218) scale(577.091 577.091)">
<stop offset="0.07" stop-color="#FEFEE2"/>
<stop offset="0.28" stop-color="#FDEE8C"/>
<stop offset="0.49" stop-color="#FCDE36"/>
<stop offset="0.82" stop-color="#F5B820"/>
<stop offset="1" stop-color="#EE910A"/>
</radialGradient>
</defs>
</svg>
